<svg xmlns="http://www.w3.org/2000/svg" viewBox="0 0 1062 1546" width="1062" height="1546">
  <defs>
    <linearGradient id="tessera_teal_pearl" x1="0%" y1="100%" x2="100%" y2="0%">
      <stop offset="0%" stop-color="#587579"/>
      <stop offset="55%" stop-color="#8FA49E"/>
      <stop offset="85%" stop-color="#E3DCCB"/>
      <stop offset="100%" stop-color="#F0E8DE"/>
    </linearGradient>
  </defs>
  <g transform="translate(-40,1480) scale(1,-1)">
    <path d="M560 -26Q452 -26 354.0 17.5Q256 61 183.5 140.0Q111 219 80 326L344 396Q365 317 426.5 273.5Q488 230 560 230Q622 230 673.5 260.0Q725 290 755.5 341.0Q786 392 786 454Q786 547 722.5 613.5Q659 680 560 680Q530 680 502.0 671.5Q474 663 448 648L326 862L784 1242L804 1184H136V1440H1036V1184L680 840L678 916Q802 897 887.5 829.5Q973 762 1017.5 663.5Q1062 565 1062 454Q1062 318 993.0 209.5Q924 101 810.0 37.5Q696 -26 560 -26Z" fill="url(#tessera_teal_pearl)"/>
  </g>
</svg>