<svg xmlns="http://www.w3.org/2000/svg" viewBox="0 0 1084 1578" width="1084" height="1578">
  <defs>
    <linearGradient id="tessera_teal_pearl" x1="0%" y1="100%" x2="100%" y2="0%">
      <stop offset="0%" stop-color="#587579"/>
      <stop offset="55%" stop-color="#8FA49E"/>
      <stop offset="85%" stop-color="#E3DCCB"/>
      <stop offset="100%" stop-color="#F0E8DE"/>
    </linearGradient>
  </defs>
  <g transform="translate(-100,1508) scale(1,-1)">
    <path d="M642 -30Q499 -30 385.5 37.0Q272 104 206.0 223.5Q140 343 140 500V918Q140 1088 206.0 1211.5Q272 1335 392.0 1401.5Q512 1468 674 1468Q779 1468 874.0 1437.0Q969 1406 1048 1332L854 1138Q818 1174 771.0 1194.0Q724 1214 674 1214Q596 1214 538.5 1177.5Q481 1141 449.5 1082.5Q418 1024 418 958V744L372 794Q434 857 515.5 890.5Q597 924 684 924Q820 924 923.5 863.0Q1027 802 1085.5 696.0Q1144 590 1144 454Q1144 318 1075.0 208.5Q1006 99 892.0 34.5Q778 -30 642 -30ZM642 230Q704 230 755.5 260.0Q807 290 837.5 341.0Q868 392 868 454Q868 516 838.0 567.5Q808 619 757.0 649.5Q706 680 644 680Q582 680 530.5 649.5Q479 619 448.5 567.5Q418 516 418 454Q418 394 448.0 343.0Q478 292 529.0 261.0Q580 230 642 230Z" fill="url(#tessera_teal_pearl)"/>
  </g>
</svg>