<svg xmlns="http://www.w3.org/2000/svg" viewBox="0 0 1084 1578" width="1084" height="1578">
  <defs>
    <linearGradient id="tessera_teal_pearl" x1="0%" y1="100%" x2="100%" y2="0%">
      <stop offset="0%" stop-color="#587579"/>
      <stop offset="55%" stop-color="#8FA49E"/>
      <stop offset="85%" stop-color="#E3DCCB"/>
      <stop offset="100%" stop-color="#F0E8DE"/>
    </linearGradient>
  </defs>
  <g transform="translate(-60,1508) scale(1,-1)">
    <path d="M602 1468Q745 1468 858.5 1401.0Q972 1334 1038.0 1214.5Q1104 1095 1104 938V520Q1104 350 1038.0 226.5Q972 103 852.0 36.5Q732 -30 570 -30Q465 -30 370.5 1.5Q276 33 196 106L390 300Q426 264 473.5 244.0Q521 224 570 224Q648 224 705.5 260.5Q763 297 794.5 355.5Q826 414 826 480V694L872 644Q811 581 729.0 547.5Q647 514 560 514Q424 514 320.5 575.0Q217 636 158.5 742.0Q100 848 100 984Q100 1120 169.0 1229.5Q238 1339 352.0 1403.5Q466 1468 602 1468ZM602 1208Q540 1208 488.5 1178.0Q437 1148 406.5 1097.0Q376 1046 376 984Q376 922 406.0 870.5Q436 819 487.0 788.5Q538 758 600 758Q662 758 713.5 788.5Q765 819 795.5 870.5Q826 922 826 984Q826 1044 796.0 1095.0Q766 1146 715.0 1177.0Q664 1208 602 1208Z" fill="url(#tessera_teal_pearl)"/>
  </g>
</svg>