<svg xmlns="http://www.w3.org/2000/svg" viewBox="0 0 1086 1580" width="1086" height="1580">
  <defs>
    <linearGradient id="tessera_teal_pearl" x1="0%" y1="100%" x2="100%" y2="0%">
      <stop offset="0%" stop-color="#587579"/>
      <stop offset="55%" stop-color="#8FA49E"/>
      <stop offset="85%" stop-color="#E3DCCB"/>
      <stop offset="100%" stop-color="#F0E8DE"/>
    </linearGradient>
  </defs>
  <g transform="translate(-80,1510) scale(1,-1)">
    <path d="M622 -30Q476 -30 362.5 29.5Q249 89 184.5 193.5Q120 298 120 432Q120 546 171.5 647.0Q223 748 320 812L314 728Q241 799 199.5 878.0Q158 957 158 1056Q158 1181 217.5 1274.0Q277 1367 381.5 1418.5Q486 1470 622 1470Q758 1470 862.5 1418.5Q967 1367 1026.5 1274.0Q1086 1181 1086 1056Q1086 957 1047.0 878.5Q1008 800 928 726V810Q1023 750 1074.5 648.0Q1126 546 1126 432Q1126 298 1061.0 193.5Q996 89 882.0 29.5Q768 -30 622 -30ZM622 226Q718 226 778.0 278.0Q838 330 838 432Q838 533 778.0 586.5Q718 640 622 640Q526 640 467.0 586.5Q408 533 408 432Q408 330 467.0 278.0Q526 226 622 226ZM622 898Q700 898 749.0 936.5Q798 975 798 1056Q798 1137 749.0 1176.5Q700 1216 622 1216Q544 1216 495.0 1176.5Q446 1137 446 1056Q446 975 495.0 936.5Q544 898 622 898Z" fill="url(#tessera_teal_pearl)"/>
  </g>
</svg>